PathFileType	4	(X/Y/Z)	/Users/itak/Documents/Research/Walk-IL/dataset/trc/00005_00004.trc
DataRate	CameraRate	NumFrames	NumMarkers	Units	OrigDataRate	OrigDataStartFrame	OrigNumFrames
100.000000	100.000000	4	53	mm	100.000000	73	589
Frame#	Time	RPSI			LPSI			L3			STRN			T10			C7			CLAV			RBAK			LBAK			LSHO			LUPA			LAEL			LAOL			LWTS			LWPS			LFRA			LIFD			LHPS			LHTS			RSHO			RUPA			RAEL			RAOL			RWTS			RWPS			RFRA			RIFD			RHTS			RHPS			RBHD			LFHD			RFHD			LBHD			LHIP			RHIP			RASI			LASI			LKNE			LTHI			LANK			LTIP			LTOE			LMT1			LMT5			LHEE			RKNE			RTHI			RANK			RTIP			RTOE			RMT1			RMT5			RHEE			
		X1	Y1	Z1	X2	Y2	Z2	X3	Y3	Z3	X4	Y4	Z4	X5	Y5	Z5	X6	Y6	Z6	X7	Y7	Z7	X8	Y8	Z8	X9	Y9	Z9	X10	Y10	Z10	X11	Y11	Z11	X12	Y12	Z12	X13	Y13	Z13	X14	Y14	Z14	X15	Y15	Z15	X16	Y16	Z16	X17	Y17	Z17	X18	Y18	Z18	X19	Y19	Z19	X20	Y20	Z20	X21	Y21	Z21	X22	Y22	Z22	X23	Y23	Z23	X24	Y24	Z24	X25	Y25	Z25	X26	Y26	Z26	X27	Y27	Z27	X28	Y28	Z28	X29	Y29	Z29	X30	Y30	Z30	X31	Y31	Z31	X32	Y32	Z32	X33	Y33	Z33	X34	Y34	Z34	X35	Y35	Z35	X36	Y36	Z36	X37	Y37	Z37	X38	Y38	Z38	X39	Y39	Z39	X40	Y40	Z40	X41	Y41	Z41	X42	Y42	Z42	X43	Y43	Z43	X44	Y44	Z44	X45	Y45	Z45	X46	Y46	Z46	X47	Y47	Z47	X48	Y48	Z48	X49	Y49	Z49	X50	Y50	Z50	X51	Y51	Z51	X52	Y52	Z52	X53	Y53	Z53	

74	0.73	-1230.635131835938	1067.689453125	-168.7798614501953	-1239.542236328125	1062.748657226562	-332.7594604492188	-1242.913818359375	1128.604125976562	-258.9930419921875	-1028.2412109375	1325.49462890625	-257.8927307128906	-1274.766479492188	1267.949096679688	-262.5656433105469	-1237.623901367188	1536.881225585938	-273.4235534667969	-1074.513793945312	1450.271362304688	-263.6787719726562	-1285.268676757812	1398.303344726562	-194.1376342773438	-1250.40234375	1494.759033203125	-371.8616638183594	-1145.955688476562	1504.999755859375	-442.5042419433594	-1168.877319335938	1378.881958007812	-520.7590942382812	-1159.783935546875	1159.5986328125	-540.9413452148438	-1221.686401367188	1147.765380859375	-455.3691711425781	-1074.115600585938	908.1685791015625	-475.9611206054688	-1147.6533203125	892.5798950195312	-522.53466796875	-1145.556884765625	1043.776123046875	-544.171142578125	-1047.062255859375	725.4714965820312	-451.503662109375	-1113.86865234375	803.431884765625	-518.0845336914062	-1047.880737304688	816.862060546875	-487.68701171875	-1164.412841796875	1526.496337890625	-96.47328186035156	-1176.460083007812	1453.214599609375	-24.3173656463623	-1198.107177734375	1182.437622070312	-5.194692134857178	-1198.9267578125	1155.671752929688	-102.3950958251953	-1061.363159179688	926.7996826171875	-35.60723876953125	-1128.60986328125	910.6588745117188	27.22448921203613	-1182.11328125	1107.497680664062	9.543813705444336	-1040.091796875	743.9501342773438	-52.04840087890625	-1026.33544921875	818.692138671875	-19.15805053710938	-1084.147216796875	811.5673217773438	28.08094596862793	-1203.017944335938	1723.775268554688	-314.8587646484375	-996.9146118164062	1737.06201171875	-243.9492950439453	-1022.716674804688	1737.7138671875	-339.0260925292969	-1158.86669921875	1718.635986328125	-177.5119476318359	-1145.584838867188	963.2054443359375	-442.3198852539062	-1112.812622070312	963.6970825195312	-69.33782196044922	-1011.743957519531	995.7402954101562	-148.9437713623047	-1027.1396484375	1011.448303222656	-383.7184753417969	-1110.02880859375	517.0953979492188	-393.37646484375	-1129.220703125	654.1129150390625	-429.5436096191406	-1213.248657226562	42.71247482299805	-394.454833984375	-1194.260009765625	288.7727966308594	-413.4459533691406	-995.090087890625	40.79354095458984	-323.5283508300781	-1054.822387695312	49.344970703125	-307.7445678710938	-1088.055297851562	39.84003448486328	-410.2034301757812	-1284.507202148438	48.165283203125	-342.1255187988281	-1114.462768554688	525.8573608398438	-118.779426574707	-1090.388671875	795.2883911132812	-75.40180206298828	-1236.245483398438	47.91043853759766	-137.3768615722656	-1144.299072265625	404.3294677734375	-117.1808166503906	-1003.739013671875	45.16907501220703	-175.2433471679688	-1066.46435546875	49.31441497802734	-207.1564025878906	-1086.466552734375	46.33263778686523	-112.528450012207	-1291.251831054688	47.75253295898438	-182.0954284667969	
75	0.74	-1230.601684570312	1067.6904296875	-168.7109985351562	-1239.52978515625	1062.744262695312	-332.6935729980469	-1242.838623046875	1128.6240234375	-258.9223327636719	-1028.203125	1325.489868164062	-257.845947265625	-1274.716796875	1267.95068359375	-262.53662109375	-1237.576171875	1536.88427734375	-273.4919738769531	-1074.4931640625	1450.24560546875	-263.6797485351562	-1285.239868164062	1398.318359375	-194.1549224853516	-1250.32421875	1494.71435546875	-371.9356994628906	-1145.893920898438	1504.916748046875	-442.5592956542969	-1168.785400390625	1378.794067382812	-520.757568359375	-1159.707885742188	1159.512939453125	-540.8968505859375	-1221.558349609375	1147.682250976562	-455.3097534179688	-1074.056884765625	908.0982666015625	-475.8617553710938	-1147.54296875	892.4990234375	-522.4148559570312	-1145.415161132812	1043.691040039062	-544.0804443359375	-1046.830688476562	725.3955078125	-451.3353271484375	-1113.723022460938	803.3591918945312	-517.9365234375	-1047.764770507812	816.7730712890625	-487.5414428710938	-1164.388305664062	1526.537231445312	-96.50432586669922	-1176.436157226562	1453.3037109375	-24.33798408508301	-1198.159790039062	1182.520751953125	-5.158801078796387	-1198.925415039062	1155.751708984375	-102.332405090332	-1061.567016601562	926.8034057617188	-35.49062728881836	-1128.819213867188	910.7085571289062	27.3629264831543	-1182.166015625	1107.600219726562	9.623467445373535	-1040.426147460938	743.9387817382812	-51.92527008056641	-1026.7255859375	818.6083374023438	-18.99862861633301	-1084.373291015625	811.597412109375	28.19667816162109	-1202.34033203125	1723.923706054688	-315.8500061035156	-996.7030029296875	1736.79248046875	-243.3078002929688	-1021.687744140625	1737.317626953125	-338.5902404785156	-1159.28857421875	1718.97119140625	-178.1748809814453	-1145.533325195312	963.1957397460938	-442.23681640625	-1112.7890625	963.7178955078125	-69.20747375488281	-1011.738586425781	995.7555541992188	-148.8401336669922	-1027.139770507812	1011.423156738281	-383.6838989257812	-1110.047241210938	517.0997924804688	-393.3445434570312	-1129.25634765625	654.1204223632812	-429.4896545410156	-1213.250610351562	42.7059440612793	-394.4659423828125	-1194.266967773438	288.7774963378906	-413.435302734375	-995.1024780273438	40.79561233520508	-323.5204467773438	-1054.79345703125	49.35257720947266	-307.678955078125	-1088.052612304688	39.83544540405273	-410.208984375	-1284.505737304688	48.15983200073242	-342.1304016113281	-1114.504638671875	525.8577270507812	-118.7249908447266	-1090.322998046875	795.3590698242188	-75.38579559326172	-1236.244140625	47.90151596069336	-137.3716888427734	-1144.346069335938	404.3392639160156	-117.1229934692383	-1003.741455078125	45.17314147949219	-175.2443389892578	-1066.46240234375	49.32159423828125	-207.1558380126953	-1086.466186523438	46.33172988891602	-112.5283355712891	-1291.25048828125	47.74638366699219	-182.0877532958984	
76	0.75	-1230.58056640625	1067.692504882812	-168.638916015625	-1239.531372070312	1062.74560546875	-332.6213989257812	-1242.76318359375	1128.649536132812	-258.84326171875	-1028.168823242188	1325.478271484375	-257.7984008789062	-1274.669555664062	1267.959350585938	-262.500244140625	-1237.518798828125	1536.891723632812	-273.55517578125	-1074.462280273438	1450.220336914062	-263.6785278320312	-1285.20654296875	1398.341674804688	-194.1669006347656	-1250.239868164062	1494.684814453125	-371.9977416992188	-1145.825805664062	1504.841186523438	-442.60986328125	-1168.680541992188	1378.708251953125	-520.7521362304688	-1159.638793945312	1159.435302734375	-540.8532104492188	-1221.436889648438	1147.606323242188	-455.2516479492188	-1073.990600585938	908.0411376953125	-475.7575073242188	-1147.431640625	892.427001953125	-522.2993774414062	-1145.26171875	1043.614990234375	-543.9857788085938	-1046.601928710938	725.34326171875	-451.1710815429688	-1113.575561523438	803.2974243164062	-517.7908325195312	-1047.660766601562	816.6759033203125	-487.3874206542969	-1164.348266601562	1526.581909179688	-96.53205108642578	-1176.390502929688	1453.397827148438	-24.35059356689453	-1198.192993164062	1182.6005859375	-5.114828586578369	-1198.919921875	1155.829467773438	-102.2693176269531	-1061.774047851562	926.8087768554688	-35.38059616088867	-1129.036743164062	910.7568359375	27.4913215637207	-1182.213256835938	1107.7021484375	9.702529907226562	-1040.759521484375	743.93798828125	-51.80983352661133	-1027.087646484375	818.51513671875	-18.83832931518555	-1084.614379882812	811.6317138671875	28.32700157165527	-1201.652221679688	1724.054443359375	-316.841552734375	-996.474609375	1736.546752929688	-242.6837921142578	-1020.672424316406	1736.9169921875	-338.1495361328125	-1159.696655273438	1719.316162109375	-178.8359680175781	-1145.494384765625	963.1891479492188	-442.1548461914062	-1112.783813476562	963.738037109375	-69.08287048339844	-1011.7421875	995.7675170898438	-148.7407073974609	-1027.14599609375	1011.397094726562	-383.6450500488281	-1110.073974609375	517.1063232421875	-393.3133850097656	-1129.3046875	654.1309814453125	-429.4359130859375	-1213.25390625	42.70206451416016	-394.47802734375	-1194.27880859375	288.7831115722656	-413.4248046875	-995.1150512695312	40.79815673828125	-323.5110778808594	-1054.773071289062	49.35964584350586	-307.6294250488281	-1088.05078125	39.83003234863281	-410.2162780761719	-1284.504150390625	48.15601348876953	-342.1354064941406	-1114.554321289062	525.8587036132812	-118.6683883666992	-1090.2705078125	795.4046020507812	-75.34304809570312	-1236.244384765625	47.89501571655273	-137.3660430908203	-1144.393310546875	404.3532104492188	-117.0680923461914	-1003.741638183594	45.17644119262695	-175.2430572509766	-1066.460083007812	49.32907867431641	-207.1550750732422	-1086.467163085938	46.33213043212891	-112.5281524658203	-1291.250366210938	47.73999786376953	-182.0779266357422	
77	0.76	-1230.571899414062	1067.695922851562	-168.5635070800781	-1239.546752929688	1062.7529296875	-332.5419006347656	-1242.690307617188	1128.680786132812	-258.756591796875	-1028.139038085938	1325.458740234375	-257.7494201660156	-1274.625366210938	1267.97509765625	-262.4573669433594	-1237.451904296875	1536.905029296875	-273.6098327636719	-1074.416381835938	1450.196411132812	-263.6737976074219	-1285.1669921875	1398.374267578125	-194.1734008789062	-1250.147705078125	1494.670288085938	-372.0475463867188	-1145.7509765625	1504.773193359375	-442.6547241210938	-1168.563598632812	1378.625732421875	-520.7423095703125	-1159.57470703125	1159.365600585938	-540.8097534179688	-1221.322875976562	1147.537841796875	-455.1953430175781	-1073.908935546875	908.0007934570312	-475.6423645019531	-1147.317260742188	892.3634033203125	-522.1859130859375	-1145.100341796875	1043.546508789062	-543.8873291015625	-1046.385986328125	725.3160400390625	-451.0119934082031	-1113.425659179688	803.2454833984375	-517.6444702148438	-1047.562377929688	816.5707397460938	-487.2209167480469	-1164.291381835938	1526.631225585938	-96.55481719970703	-1176.322143554688	1453.49658203125	-24.35365295410156	-1198.20947265625	1182.677368164062	-5.064711570739746	-1198.9091796875	1155.9052734375	-102.2063980102539	-1061.98095703125	926.8169555664062	-35.27385711669922	-1129.259765625	910.80419921875	27.60977935791016	-1182.256103515625	1107.802124023438	9.77995777130127	-1041.080200195312	743.946533203125	-51.69365692138672	-1027.408569335938	818.41943359375	-18.67674446105957	-1084.8740234375	811.6693725585938	28.47169494628906	-1200.948120117188	1724.162963867188	-317.81982421875	-996.2340087890625	1736.326171875	-242.0802612304688	-1019.689086914062	1736.518920898438	-337.7086181640625	-1160.080078125	1719.664916992188	-179.4833221435547	-1145.467529296875	963.1863403320312	-442.0735473632812	-1112.79541015625	963.7559814453125	-68.96492767333984	-1011.753112792969	995.77587890625	-148.6454620361328	-1027.1552734375	1011.371215820312	-383.5983276367188	-1110.110107421875	517.1153564453125	-393.2831420898438	-1129.36474609375	654.1445922851562	-429.3823547363281	-1213.258178710938	42.70051193237305	-394.4905090332031	-1194.296020507812	288.7898559570312	-413.4144592285156	-995.1280517578125	40.80094146728516	-323.5014343261719	-1054.761352539062	49.36189651489258	-307.60205078125	-1088.049926757812	39.823486328125	-410.2249755859375	-1284.50244140625	48.15374755859375	-342.1404724121094	-1114.613037109375	525.8612670898438	-118.6087112426758	-1090.2607421875	795.4099731445312	-75.25321197509766	-1236.24853515625	47.89320373535156	-137.3591613769531	-1144.441162109375	404.3698425292969	-117.0154571533203	-1003.740295410156	45.17965316772461	-175.2406921386719	-1066.457641601562	49.33576583862305	-207.1541137695312	-1086.4697265625	46.33384323120117	-112.5277099609375	-1291.252807617188	47.73288345336914	-182.0662078857422	
